<svg width="657.9px" height="122px" xmlns="http://www.w3.org/2000/svg" viewBox="-78.94687499999998 14 657.89375 122" style="background: rgba(0, 0, 0, 0)" preserveAspectRatio="xMidYMid"><defs><linearGradient id="editing-outline-gradient" x1="-0.41354545764260087" x2="1.4135454576426008" y1="0.09326335692419985" y2="0.9067366430758002"><stop offset="0" stop-color="#08eaee"></stop><stop offset="1" stop-color="#d839ff"></stop></linearGradient><filter id="editing-outline" x="-100%" y="-100%" width="300%" height="300%"><feMorphology in="SourceGraphic" operator="dilate" radius="2" result="outline"></feMorphology><feComposite operator="out" in="outline" in2="SourceAlpha"></feComposite></filter></defs><g filter="url(#editing-outline)"><g transform="matrix(1.4,0,0,1.8,-52.1,225.5)"><path d="M 0.1 -66.2 L -13.9 -66.2 L -5.7 -108.5 L 8.3 -108.5 L 0.1 -66.2 Z M 55.8 -65 L 55.8 -65 L 55.8 -65 Q 48.1 -65 48.1 -71 L 48.1 -71 L 48.1 -71 Q 48.1 -73.6 49.2 -78.7 L 49.2 -78.7 L 49.2 -78.7 Q 50.3 -83.8 50.7 -85.8 L 50.7 -85.8 L 50.7 -85.8 Q 51.6 -90.5 51.6 -92 L 51.6 -92 L 51.6 -92 Q 51.6 -95.2 49.2 -95.2 L 49.2 -95.2 L 49.2 -95.2 Q 47.6 -95.2 46 -93 L 46 -93 L 46 -93 Q 44.5 -90.8 43.8 -86.4 L 43.8 -86.4 L 39.8 -66.2 L 27.3 -65 L 30.8 -82.4 L 30.8 -82.4 Q 31.4 -85.2 31.9 -88.5 L 31.9 -88.5 L 31.9 -88.5 Q 32.4 -91.8 32.4 -92.3 L 32.4 -92.3 L 32.4 -92.3 Q 32.4 -95.2 30.2 -95.2 L 30.2 -95.2 L 30.2 -95.2 Q 28.8 -95.2 27.2 -93.1 L 27.2 -93.1 L 27.2 -93.1 Q 25.6 -90.9 24.7 -86.4 L 24.7 -86.4 L 20.8 -66.2 L 8.1 -65 L 14.9 -98.9 L 25.3 -100.2 L 24.2 -93.7 L 24.2 -93.7 Q 25.9 -97.1 28.9 -98.7 L 28.9 -98.7 L 28.9 -98.7 Q 32 -100.2 36.8 -100.2 L 36.8 -100.2 L 36.8 -100.2 Q 39.6 -100.2 41.4 -98.8 L 41.4 -98.8 L 41.4 -98.8 Q 43.2 -97.5 43.7 -95.3 L 43.7 -95.3 L 43.7 -95.3 Q 44.8 -97.5 47.6 -98.8 L 47.6 -98.8 L 47.6 -98.8 Q 50.4 -100.2 53.8 -100.2 L 53.8 -100.2 L 53.8 -100.2 Q 57.2 -100.2 58.9 -99.4 L 58.9 -99.4 L 58.9 -99.4 Q 60.6 -98.7 61.6 -97.5 L 61.6 -97.5 L 61.6 -97.5 Q 63.4 -95.2 63.4 -91.1 L 63.4 -91.1 L 63.4 -91.1 Q 63.4 -87.1 61.6 -78.7 L 61.6 -78.7 L 61.6 -78.7 Q 60.8 -74.6 60.8 -73.1 L 60.8 -73.1 L 60.8 -73.1 Q 60.8 -71.6 61.6 -70.7 L 61.6 -70.7 L 61.6 -70.7 Q 62.5 -69.8 63.8 -69.7 L 63.8 -69.7 L 63.8 -69.7 Q 63.1 -67.5 60.9 -66.2 L 60.9 -66.2 L 60.9 -66.2 Q 58.7 -65 55.8 -65 Z M 71.5 -68.2 L 71.5 -68.2 L 71.5 -68.2 Q 70 -69.8 69.3 -72.4 L 69.3 -72.4 L 69.3 -72.4 Q 68.6 -75.1 68.6 -79.4 L 68.6 -79.4 L 68.6 -79.4 Q 68.6 -83.6 70.1 -87.5 L 70.1 -87.5 L 70.1 -87.5 Q 71.6 -91.5 74.3 -94.3 L 74.3 -94.3 L 74.3 -94.3 Q 79.8 -100.2 88.8 -100.2 L 88.8 -100.2 L 88.8 -100.2 Q 92.1 -100.2 94.5 -99.1 L 94.5 -99.1 L 105.4 -100.2 L 100.7 -75.2 L 100.7 -75.2 Q 100.5 -74.4 100.5 -73 L 100.5 -73 L 100.5 -73 Q 100.5 -71.6 101.4 -70.7 L 101.4 -70.7 L 101.4 -70.7 Q 102.2 -69.8 103.5 -69.7 L 103.5 -69.7 L 103.5 -69.7 Q 102.9 -67.5 100.5 -66.2 L 100.5 -66.2 L 100.5 -66.2 Q 98.2 -65 95.6 -65 L 95.6 -65 L 95.6 -65 Q 92.9 -65 91.2 -65.9 L 91.2 -65.9 L 91.2 -65.9 Q 89.4 -66.9 88.9 -68.6 L 88.9 -68.6 L 88.9 -68.6 Q 87.9 -67 85.7 -66 L 85.7 -66 L 85.7 -66 Q 83.5 -65 80.6 -65 L 80.6 -65 L 80.6 -65 Q 77.7 -65 75.3 -65.7 L 75.3 -65.7 L 75.3 -65.7 Q 73 -66.5 71.5 -68.2 Z M 85 -94.1 L 85 -94.1 L 85 -94.1 Q 84.2 -93 83.6 -91 L 83.6 -91 L 83.6 -91 Q 83 -89.1 81.9 -83.9 L 81.9 -83.9 L 81.9 -83.9 Q 80.8 -78.7 80.8 -74.9 L 80.8 -74.9 L 80.8 -74.9 Q 80.8 -71.2 81.4 -70.1 L 81.4 -70.1 L 81.4 -70.1 Q 82 -69.1 83 -69.1 L 83 -69.1 L 83 -69.1 Q 85.1 -69.1 86.6 -71 L 86.6 -71 L 86.6 -71 Q 88.1 -73 88.7 -76.4 L 88.7 -76.4 L 92 -95.2 L 92 -95.2 Q 90.7 -96.3 89.1 -96.3 L 89.1 -96.3 L 89.1 -96.3 Q 87.6 -96.3 86.6 -95.8 L 86.6 -95.8 L 86.6 -95.8 Q 85.7 -95.3 85 -94.1 Z M 113.2 -93 L 113.2 -93 L 113.2 -93 Q 115.3 -96.1 118.6 -98.1 L 118.6 -98.1 L 118.6 -98.1 Q 121.9 -100.2 126 -100.2 L 126 -100.2 L 126 -100.2 Q 130 -100.2 131.9 -98.9 L 131.9 -98.9 L 144.5 -100.2 L 140.1 -75.6 L 140.1 -75.6 Q 137.9 -63 133.1 -58.1 L 133.1 -58.1 L 133.1 -58.1 Q 128.6 -53.4 119.8 -53.4 L 119.8 -53.4 L 119.8 -53.4 Q 113 -53.4 109.2 -55.5 L 109.2 -55.5 L 109.2 -55.5 Q 105.4 -57.7 105.4 -61.2 L 105.4 -61.2 L 105.4 -61.2 Q 105.4 -63.8 107.3 -65.3 L 107.3 -65.3 L 107.3 -65.3 Q 109.3 -66.8 112.4 -66.8 L 112.4 -66.8 L 112.4 -66.8 Q 115.1 -66.8 117.1 -65.6 L 117.1 -65.6 L 117.1 -65.6 Q 118.4 -65 118.9 -64.1 L 118.9 -64.1 L 118.9 -64.1 Q 117.5 -62.8 117.5 -60.7 L 117.5 -60.7 L 117.5 -60.7 Q 117.5 -57.9 120 -57.9 L 120 -57.9 L 120 -57.9 Q 124.3 -57.9 126.7 -68 L 126.7 -68 L 126.7 -68 Q 127.4 -70.8 128 -73.5 L 128 -73.5 L 128 -73.5 Q 125.1 -70 118.6 -70 L 118.6 -70 L 118.6 -70 Q 114.1 -70 111.4 -72.2 L 111.4 -72.2 L 111.4 -72.2 Q 108.8 -74.4 108.8 -79.5 L 108.8 -79.5 L 108.8 -79.5 Q 108.8 -82.7 109.9 -86.3 L 109.9 -86.3 L 109.9 -86.3 Q 111 -89.9 113.2 -93 Z M 121.5 -79.3 L 121.5 -79.3 L 121.5 -79.3 Q 121.5 -74.9 123.7 -74.9 L 123.7 -74.9 L 123.7 -74.9 Q 125.3 -74.9 126.7 -76.6 L 126.7 -76.6 L 126.7 -76.6 Q 127.9 -77.9 128.3 -79.9 L 128.3 -79.9 L 131.6 -96.4 L 131.6 -96.4 Q 131.3 -96.4 131 -96.6 L 131 -96.6 L 131 -96.6 Q 130.3 -96.8 129.5 -96.8 L 129.5 -96.8 L 129.5 -96.8 Q 125.6 -96.8 123.3 -90.4 L 123.3 -90.4 L 123.3 -90.4 Q 121.5 -85.4 121.5 -79.3 Z M 172.9 -77.1 L 172.9 -77.1 L 172.9 -77.1 Q 174.5 -76 174.5 -73.6 L 174.5 -73.6 L 174.5 -73.6 Q 174.5 -71.2 173.3 -69.6 L 173.3 -69.6 L 173.3 -69.6 Q 172 -68.1 170.1 -67.1 L 170.1 -67.1 L 170.1 -67.1 Q 166 -65 161.6 -65 L 161.6 -65 L 161.6 -65 Q 157.1 -65 154.5 -65.9 L 154.5 -65.9 L 154.5 -65.9 Q 152 -66.9 150.2 -68.7 L 150.2 -68.7 L 150.2 -68.7 Q 146.8 -72.1 146.8 -78.3 L 146.8 -78.3 L 146.8 -78.3 Q 146.8 -87.9 152.1 -93.8 L 152.1 -93.8 L 152.1 -93.8 Q 157.7 -100.2 167.5 -100.2 L 167.5 -100.2 L 167.5 -100.2 Q 173.6 -100.2 176.6 -97.6 L 176.6 -97.6 L 176.6 -97.6 Q 178.8 -95.7 178.8 -92.5 L 178.8 -92.5 L 178.8 -92.5 Q 178.8 -81.3 159.4 -81.3 L 159.4 -81.3 L 159.4 -81.3 Q 159.1 -79.6 159.1 -78.2 L 159.1 -78.2 L 159.1 -78.2 Q 159.1 -75.3 160.4 -74.1 L 160.4 -74.1 L 160.4 -74.1 Q 161.7 -73 164.2 -73 L 164.2 -73 L 164.2 -73 Q 166.6 -73 169.2 -74.1 L 169.2 -74.1 L 169.2 -74.1 Q 171.8 -75.3 172.9 -77.1 Z M 159.8 -84 L 159.8 -84 L 159.8 -84 Q 164.4 -84 167 -86.8 L 167 -86.8 L 167 -86.8 Q 169.6 -89.5 169.6 -93.8 L 169.6 -93.8 L 169.6 -93.8 Q 169.6 -95.3 169.1 -96.1 L 169.1 -96.1 L 169.1 -96.1 Q 168.5 -96.9 167.4 -96.9 L 167.4 -96.9 L 167.4 -96.9 Q 166.4 -96.9 165.4 -96.5 L 165.4 -96.5 L 165.4 -96.5 Q 164.5 -96.1 163.5 -94.7 L 163.5 -94.7 L 163.5 -94.7 Q 161.2 -91.5 159.8 -84 Z M 200.1 -88.7 L 200.1 -88.7 L 200.1 -88.7 Q 201 -91.1 201 -93.1 L 201 -93.1 L 201 -93.1 Q 201 -96.9 198 -96.9 L 198 -96.9 L 198 -96.9 Q 196.4 -96.9 195.1 -95.5 L 195.1 -95.5 L 195.1 -95.5 Q 193.7 -94 193.7 -92.2 L 193.7 -92.2 L 193.7 -92.2 Q 193.7 -90.9 194.8 -89.9 L 194.8 -89.9 L 194.8 -89.9 Q 196.2 -88.5 200 -86.2 L 200 -86.2 L 200 -86.2 Q 203.8 -83.9 205.2 -82 L 205.2 -82 L 205.2 -82 Q 206.7 -80.1 206.7 -77.5 L 206.7 -77.5 L 206.7 -77.5 Q 206.7 -74.9 205.4 -72.6 L 205.4 -72.6 L 205.4 -72.6 Q 204.2 -70.2 201.9 -68.5 L 201.9 -68.5 L 201.9 -68.5 Q 197.1 -65 189.5 -65 L 189.5 -65 L 189.5 -65 Q 185.3 -65 182.1 -67.1 L 182.1 -67.1 L 182.1 -67.1 Q 178.9 -69.2 178.9 -71.7 L 178.9 -71.7 L 178.9 -71.7 Q 178.9 -74.2 180.7 -75.7 L 180.7 -75.7 L 180.7 -75.7 Q 182.5 -77.2 185.2 -77.2 L 185.2 -77.2 L 185.2 -77.2 Q 187.9 -77.2 189.6 -76.2 L 189.6 -76.2 L 189.6 -76.2 Q 188.8 -74 188.8 -72.6 L 188.8 -72.6 L 188.8 -72.6 Q 188.8 -68.4 192.3 -68.4 L 192.3 -68.4 L 192.3 -68.4 Q 193.9 -68.4 194.9 -69.4 L 194.9 -69.4 L 194.9 -69.4 Q 195.9 -70.3 195.9 -72 L 195.9 -72 L 195.9 -72 Q 195.9 -75.3 190.4 -78.7 L 190.4 -78.7 L 190.4 -78.7 Q 185.9 -81.7 184.9 -82.8 L 184.9 -82.8 L 184.9 -82.8 Q 183.2 -84.9 183.2 -87.4 L 183.2 -87.4 L 183.2 -87.4 Q 183.2 -90 184.4 -92.4 L 184.4 -92.4 L 184.4 -92.4 Q 185.6 -94.8 187.9 -96.6 L 187.9 -96.6 L 187.9 -96.6 Q 192.5 -100.2 200.7 -100.2 L 200.7 -100.2 L 200.7 -100.2 Q 204.8 -100.2 207.3 -98.5 L 207.3 -98.5 L 207.3 -98.5 Q 209.7 -96.8 209.7 -94 L 209.7 -94 L 209.7 -94 Q 209.7 -91.2 208 -89.6 L 208 -89.6 L 208 -89.6 Q 206.4 -88 203.3 -88 L 203.3 -88 L 203.3 -88 Q 201.2 -88 200.1 -88.7 Z M 251.2 -86.8 L 264.1 -88 L 264.1 -88 Q 259.5 -77.9 259.5 -66.2 L 259.5 -66.2 L 259.5 -66.2 Q 257.8 -65 255.3 -65 L 255.3 -65 L 255.3 -65 Q 252.8 -65 251.2 -66.1 L 251.2 -66.1 L 251.2 -66.1 Q 249.6 -67.3 249.2 -68.5 L 249.2 -68.5 L 249.2 -68.5 Q 247.6 -66.9 245 -65.9 L 245 -65.9 L 245 -65.9 Q 242.4 -65 239.7 -65 L 239.7 -65 L 239.7 -65 Q 236.9 -65 234.5 -65.9 L 234.5 -65.9 L 234.5 -65.9 Q 232.1 -66.7 230.3 -68.7 L 230.3 -68.7 L 230.3 -68.7 Q 226.2 -73.1 226.2 -81.3 L 226.2 -81.3 L 226.2 -81.3 Q 226.2 -94.1 233 -101.8 L 233 -101.8 L 233 -101.8 Q 240.1 -109.8 252.6 -109.8 L 252.6 -109.8 L 252.6 -109.8 Q 261.2 -109.8 264.3 -105.3 L 264.3 -105.3 L 264.3 -105.3 Q 265.2 -103.9 265.2 -102.2 L 265.2 -102.2 L 265.2 -102.2 Q 265.2 -100.5 264.5 -99 L 264.5 -99 L 264.5 -99 Q 263.8 -97.6 262.6 -96.4 L 262.6 -96.4 L 262.6 -96.4 Q 259.9 -93.9 256.5 -93.9 L 256.5 -93.9 L 256.5 -93.9 Q 255.1 -93.9 253.8 -94.3 L 253.8 -94.3 L 253.8 -94.3 Q 254.1 -96.3 254.1 -98.5 L 254.1 -98.5 L 254.1 -98.5 Q 254.1 -100.7 253.9 -101.8 L 253.9 -101.8 L 253.9 -101.8 Q 253.8 -102.8 253.4 -103.6 L 253.4 -103.6 L 253.4 -103.6 Q 252.6 -105.3 250.7 -105.3 L 250.7 -105.3 L 250.7 -105.3 Q 248.9 -105.3 246.9 -103.4 L 246.9 -103.4 L 246.9 -103.4 Q 244.9 -101.4 243.3 -98.2 L 243.3 -98.2 L 243.3 -98.2 Q 239.8 -91.1 239.8 -82.4 L 239.8 -82.4 L 239.8 -82.4 Q 239.8 -78.5 241.3 -75.6 L 241.3 -75.6 L 241.3 -75.6 Q 243 -72.6 245.9 -72.6 L 245.9 -72.6 L 245.9 -72.6 Q 246.9 -72.6 247.9 -73.1 L 247.9 -73.1 L 247.9 -73.1 Q 248.8 -73.6 249.2 -74 L 249.2 -74 L 251.2 -86.8 Z M 270.1 -68.2 L 270.1 -68.2 L 270.1 -68.2 Q 268.6 -69.8 267.9 -72.4 L 267.9 -72.4 L 267.9 -72.4 Q 267.2 -75.1 267.2 -79.4 L 267.2 -79.4 L 267.2 -79.4 Q 267.2 -83.6 268.7 -87.5 L 268.7 -87.5 L 268.7 -87.5 Q 270.2 -91.5 272.8 -94.3 L 272.8 -94.3 L 272.8 -94.3 Q 278.4 -100.2 287.4 -100.2 L 287.4 -100.2 L 287.4 -100.2 Q 290.7 -100.2 293.1 -99.1 L 293.1 -99.1 L 304 -100.2 L 299.3 -75.2 L 299.3 -75.2 Q 299.1 -74.4 299.1 -73 L 299.1 -73 L 299.1 -73 Q 299.1 -71.6 300 -70.7 L 300 -70.7 L 300 -70.7 Q 300.8 -69.8 302.1 -69.7 L 302.1 -69.7 L 302.1 -69.7 Q 301.5 -67.5 299.1 -66.2 L 299.1 -66.2 L 299.1 -66.2 Q 296.8 -65 294.2 -65 L 294.2 -65 L 294.2 -65 Q 291.5 -65 289.8 -65.9 L 289.8 -65.9 L 289.8 -65.9 Q 288 -66.9 287.5 -68.6 L 287.5 -68.6 L 287.5 -68.6 Q 286.5 -67 284.3 -66 L 284.3 -66 L 284.3 -66 Q 282.1 -65 279.2 -65 L 279.2 -65 L 279.2 -65 Q 276.3 -65 273.9 -65.7 L 273.9 -65.7 L 273.9 -65.7 Q 271.6 -66.5 270.1 -68.2 Z M 283.6 -94.1 L 283.6 -94.1 L 283.6 -94.1 Q 282.8 -93 282.2 -91 L 282.2 -91 L 282.2 -91 Q 281.6 -89.1 280.5 -83.9 L 280.5 -83.9 L 280.5 -83.9 Q 279.4 -78.7 279.4 -74.9 L 279.4 -74.9 L 279.4 -74.9 Q 279.4 -71.2 280 -70.1 L 280 -70.1 L 280 -70.1 Q 280.6 -69.1 281.6 -69.1 L 281.6 -69.1 L 281.6 -69.1 Q 283.7 -69.1 285.2 -71 L 285.2 -71 L 285.2 -71 Q 286.7 -73 287.2 -76.4 L 287.2 -76.4 L 290.6 -95.2 L 290.6 -95.2 Q 289.3 -96.3 287.7 -96.3 L 287.7 -96.3 L 287.7 -96.3 Q 286.2 -96.3 285.2 -95.8 L 285.2 -95.8 L 285.2 -95.8 Q 284.3 -95.3 283.6 -94.1 Z M 322.8 -69.8 L 322.8 -69.8 L 322.8 -69.8 Q 320.8 -65 314.4 -65 L 314.4 -65 L 314.4 -65 Q 311.2 -65 309.2 -67.2 L 309.2 -67.2 L 309.2 -67.2 Q 307.5 -69.1 307.5 -71.2 L 307.5 -71.2 L 307.5 -71.2 Q 307.5 -76 309.8 -86.5 L 309.8 -86.5 L 314.4 -111 L 327.4 -112.3 L 321.2 -79.9 L 321.2 -79.9 Q 320.1 -75.2 320.1 -73.5 L 320.1 -73.5 L 320.1 -73.5 Q 320.1 -69.9 322.8 -69.8 Z M 343.5 -69.8 L 343.5 -69.8 L 343.5 -69.8 Q 341.5 -65 335.2 -65 L 335.2 -65 L 335.2 -65 Q 332 -65 329.9 -67.2 L 329.9 -67.2 L 329.9 -67.2 Q 328.3 -69.1 328.3 -71.2 L 328.3 -71.2 L 328.3 -71.2 Q 328.3 -76 330.5 -86.5 L 330.5 -86.5 L 335.2 -111 L 348.2 -112.3 L 342 -79.9 L 342 -79.9 Q 340.9 -75.2 340.9 -73.5 L 340.9 -73.5 L 340.9 -73.5 Q 340.9 -69.9 343.5 -69.8 Z M 374.9 -77.1 L 374.9 -77.1 L 374.9 -77.1 Q 376.5 -76 376.5 -73.6 L 376.5 -73.6 L 376.5 -73.6 Q 376.5 -71.2 375.2 -69.6 L 375.2 -69.6 L 375.2 -69.6 Q 374 -68.1 372 -67.1 L 372 -67.1 L 372 -67.1 Q 368 -65 363.5 -65 L 363.5 -65 L 363.5 -65 Q 359.1 -65 356.5 -65.9 L 356.5 -65.9 L 356.5 -65.9 Q 353.9 -66.9 352.2 -68.7 L 352.2 -68.7 L 352.2 -68.7 Q 348.8 -72.1 348.8 -78.3 L 348.8 -78.3 L 348.8 -78.3 Q 348.8 -87.9 354.1 -93.8 L 354.1 -93.8 L 354.1 -93.8 Q 359.7 -100.2 369.5 -100.2 L 369.5 -100.2 L 369.5 -100.2 Q 375.6 -100.2 378.6 -97.6 L 378.6 -97.6 L 378.6 -97.6 Q 380.8 -95.7 380.8 -92.5 L 380.8 -92.5 L 380.8 -92.5 Q 380.8 -81.3 361.4 -81.3 L 361.4 -81.3 L 361.4 -81.3 Q 361.1 -79.6 361.1 -78.2 L 361.1 -78.2 L 361.1 -78.2 Q 361.1 -75.3 362.4 -74.1 L 362.4 -74.1 L 362.4 -74.1 Q 363.7 -73 366.2 -73 L 366.2 -73 L 366.2 -73 Q 368.6 -73 371.2 -74.1 L 371.2 -74.1 L 371.2 -74.1 Q 373.8 -75.3 374.9 -77.1 Z M 361.8 -84 L 361.8 -84 L 361.8 -84 Q 366.4 -84 369 -86.8 L 369 -86.8 L 369 -86.8 Q 371.6 -89.5 371.6 -93.8 L 371.6 -93.8 L 371.6 -93.8 Q 371.6 -95.3 371.1 -96.1 L 371.1 -96.1 L 371.1 -96.1 Q 370.5 -96.9 369.4 -96.9 L 369.4 -96.9 L 369.4 -96.9 Q 368.3 -96.9 367.4 -96.5 L 367.4 -96.5 L 367.4 -96.5 Q 366.5 -96.1 365.5 -94.7 L 365.5 -94.7 L 365.5 -94.7 Q 363.2 -91.5 361.8 -84 Z M 403 -84.2 L 403 -84.2 L 403 -84.2 Q 405.3 -88.3 405.3 -92.5 L 405.3 -92.5 L 405.3 -92.5 Q 405.3 -95.2 403.3 -95.2 L 403.3 -95.2 L 403.3 -95.2 Q 401.8 -95.2 400.2 -92.6 L 400.2 -92.6 L 400.2 -92.6 Q 398.5 -90 398 -86.6 L 398 -86.6 L 394.7 -66.2 L 381.5 -65 L 388 -98.9 L 398.5 -100.2 L 397.4 -93.7 L 397.4 -93.7 Q 400.5 -100.2 407.6 -100.2 L 407.6 -100.2 L 407.6 -100.2 Q 411.3 -100.2 413.3 -98.2 L 413.3 -98.2 L 413.3 -98.2 Q 415.3 -96.3 415.3 -92.4 L 415.3 -92.4 L 415.3 -92.4 Q 415.3 -88.4 412.7 -85.9 L 412.7 -85.9 L 412.7 -85.9 Q 410.1 -83.5 405.7 -83.5 L 405.7 -83.5 L 405.7 -83.5 Q 403.8 -83.5 403 -84.2 Z M 436.7 -73.5 L 436.7 -73.5 L 436.7 -73.5 Q 433.4 -70 427.3 -70 L 427.3 -70 L 427.3 -70 Q 419.7 -70 418.1 -75.6 L 418.1 -75.6 L 418.1 -75.6 Q 417.6 -77.2 417.6 -79.1 L 417.6 -79.1 L 417.6 -79.1 Q 417.6 -81 417.9 -82.9 L 417.9 -82.9 L 420.9 -98.9 L 433.9 -100.2 L 430.4 -81.5 L 430.4 -81.5 Q 430.3 -80.7 430.1 -79.8 L 430.1 -79.8 L 430.1 -79.8 Q 429.9 -78.9 429.9 -78 L 429.9 -78 L 429.9 -78 Q 429.9 -77.1 430.2 -76.4 L 430.2 -76.4 L 430.2 -76.4 Q 430.5 -75.8 431 -75.5 L 431 -75.5 L 431 -75.5 Q 431.8 -74.9 433.1 -74.9 L 433.1 -74.9 L 433.1 -74.9 Q 434.5 -74.9 435.7 -76.6 L 435.7 -76.6 L 435.7 -76.6 Q 436.9 -78.3 437.5 -81.1 L 437.5 -81.1 L 441 -98.9 L 453.6 -100.2 L 448.8 -75 L 448.8 -75 Q 446.4 -62.7 441.6 -57.9 L 441.6 -57.9 L 441.6 -57.9 Q 439.1 -55.4 435.8 -54.4 L 435.8 -54.4 L 435.8 -54.4 Q 432.6 -53.4 428.4 -53.4 L 428.4 -53.4 L 428.4 -53.4 Q 421.7 -53.4 417.9 -55.5 L 417.9 -55.5 L 417.9 -55.5 Q 414 -57.6 414 -61.1 L 414 -61.1 L 414 -61.1 Q 414 -63.7 416 -65.2 L 416 -65.2 L 416 -65.2 Q 418 -66.7 421.1 -66.7 L 421.1 -66.7 L 421.1 -66.7 Q 423.8 -66.7 425.8 -65.6 L 425.8 -65.6 L 425.8 -65.6 Q 427 -64.9 427.6 -64 L 427.6 -64 L 427.6 -64 Q 426.1 -62.7 426.1 -60.6 L 426.1 -60.6 L 426.1 -60.6 Q 426.1 -57.8 428.7 -57.8 L 428.7 -57.8 L 428.7 -57.8 Q 432.9 -57.8 435.3 -67.5 L 435.3 -67.5 L 435.3 -67.5 Q 436 -70.4 436.7 -73.5 Z" fill="url(#editing-outline-gradient)"></path></g></g><style>text {
  font-size: 64px;
  font-family: Arial Black;
  dominant-baseline: central;
  text-anchor: middle;
}</style></svg>